Not my creation, but a good film non-the-less.

General
Complete name                            : C:MediaFilms And MoviesFilmsI Love You RosaAni_Ohev_Otakh_Rosa_AKA_I_Love_You_Rosa_1972_VHSRip_Xvid.avi
Format                                   : AVI
Format/Info                              : Audio Video Interleave
File size                                : 550 MiB
Duration                                 : 1h 18mn
Overall bit rate                         : 981 Kbps
Writing application                      : VirtualDubMod 1.5.4.1 (build 2178/release)
Writing library                          : VirtualDubMod build 2178/release

Video
ID                                       : 0
Format                                   : MPEG-4 Visual
Format profile                           : Advanced Simple@L5
Format settings, BVOP                    : 1
Format settings, QPel                    : No
Format settings, GMC                     : No warppoints
Format settings, Matrix                  : Custom
Codec ID                                 : XVID
Codec ID/Hint                            : XviD
Duration                                 : 1h 18mn
Bit rate                                 : 677 Kbps
Width                                    : 528 pixels
Height                                   : 400 pixels
Display aspect ratio                     : 4:3
Frame rate                               : 25.000 fps
Color space                              : YUV
Chroma subsampling                       : 4:2:0
Bit depth                                : 8 bits
Scan type                                : Progressive
Compression mode                         : Lossy
Bits/(Pixel*Frame)                       : 0.128
Stream size                              : 380 MiB (69%)
Writing library                          : XviD 64

Audio
ID                                       : 1
Format                                   : AC-3
Format/Info                              : Audio Coding 3
Mode extension                           : CM (complete main)
Format settings, Endianness              : Big
Codec ID                                 : 2000
Duration                                 : 1h 18mn
Bit rate mode                            : Constant
Bit rate                                 : 256 Kbps
Channel(s)                               : 2 channels
Channel positions                        : Front: L R
Sampling rate                            : 48.0 KHz
Bit depth                                : 16 bits
Compression mode                         : Lossy
Stream size                              : 144 MiB (26%)
Alignment                                : Split accros